<svg width="18" height="18" viewBox="0 0 18 18" fill="none" xmlns="http://www.w3.org/2000/svg">
<path fill-rule="evenodd" clip-rule="evenodd" d="M2.9975 2.99762H10.5006C10.915 2.99762 11.2509 3.33355 11.2509 3.74793V15.0026H2.9975C2.58312 15.0026 2.24719 14.6667 2.24719 14.2523V3.74793C2.24719 3.33355 2.58312 2.99762 2.9975 2.99762Z" stroke="#CED2DB" stroke-width="1.5" stroke-linecap="round" stroke-linejoin="round"/>
<path fill-rule="evenodd" clip-rule="evenodd" d="M11.2509 5.9989H15.0025C15.4169 5.9989 15.7528 6.33483 15.7528 6.74921V14.2523C15.7528 14.6667 15.4169 15.0027 15.0025 15.0027H11.2509V5.9989Z" stroke="#CED2DB" stroke-width="1.5" stroke-linecap="round" stroke-linejoin="round"/>
<path d="M5.24845 5.90509C5.19665 5.90509 5.15466 5.94708 5.15466 5.99887C5.15466 6.05067 5.19665 6.09266 5.24845 6.09266C5.30025 6.09266 5.34224 6.05067 5.34224 5.99887C5.34224 5.94708 5.30025 5.90509 5.24845 5.90509" stroke="#CED2DB" stroke-width="1.5" stroke-linecap="round" stroke-linejoin="round"/>
<path d="M8.2497 5.90509C8.1979 5.90509 8.15591 5.94708 8.15591 5.99887C8.15591 6.05067 8.1979 6.09266 8.2497 6.09266C8.3015 6.09266 8.34349 6.05067 8.34349 5.99887C8.34349 5.94708 8.3015 5.90509 8.2497 5.90509" stroke="#858FA6" stroke-width="1.5" stroke-linecap="round" stroke-linejoin="round"/>
<path d="M5.24845 8.90637C5.19665 8.90637 5.15466 8.94836 5.15466 9.00016C5.15466 9.05195 5.19665 9.09394 5.24845 9.09394C5.30025 9.09394 5.34224 9.05195 5.34224 9.00016C5.34224 8.94836 5.30025 8.90637 5.24845 8.90637" stroke="#858FA6" stroke-width="1.5" stroke-linecap="round" stroke-linejoin="round"/>
<path d="M8.2497 8.90637C8.1979 8.90637 8.15591 8.94836 8.15591 9.00016C8.15591 9.05195 8.1979 9.09394 8.2497 9.09394C8.3015 9.09394 8.34349 9.05195 8.34349 9.00016C8.34349 8.94836 8.3015 8.90637 8.2497 8.90637" stroke="#858FA6" stroke-width="1.5" stroke-linecap="round" stroke-linejoin="round"/>
<path d="M5.24845 11.9076C5.19665 11.9076 5.15466 11.9496 5.15466 12.0014C5.15466 12.0532 5.19665 12.0952 5.24845 12.0952C5.30025 12.0952 5.34224 12.0532 5.34224 12.0014C5.34224 11.9496 5.30025 11.9076 5.24845 11.9076" stroke="#858FA6" stroke-width="1.5" stroke-linecap="round" stroke-linejoin="round"/>
<path d="M8.2497 11.9076C8.1979 11.9076 8.15591 11.9496 8.15591 12.0014C8.15591 12.0532 8.1979 12.0952 8.2497 12.0952C8.3015 12.0952 8.34349 12.0532 8.34349 12.0014C8.34349 11.9496 8.3015 11.9076 8.2497 11.9076" stroke="#858FA6" stroke-width="1.5" stroke-linecap="round" stroke-linejoin="round"/>
<path d="M13.5019 8.90637C13.4501 8.90637 13.4081 8.94836 13.4081 9.00016C13.4081 9.05195 13.4501 9.09394 13.5019 9.09394C13.5537 9.09394 13.5957 9.05195 13.5957 9.00016C13.5957 8.94836 13.5537 8.90637 13.5019 8.90637" stroke="#858FA6" stroke-width="1.5" stroke-linecap="round" stroke-linejoin="round"/>
<path d="M13.5019 11.9076C13.4501 11.9076 13.4081 11.9496 13.4081 12.0014C13.4081 12.0532 13.4501 12.0952 13.5019 12.0952C13.5537 12.0952 13.5957 12.0532 13.5957 12.0014C13.5957 11.9496 13.5537 11.9076 13.5019 11.9076" stroke="#858FA6" stroke-width="1.5" stroke-linecap="round" stroke-linejoin="round"/>
</svg>
