<svg width="18" height="18" viewBox="0 0 18 18" fill="none" xmlns="http://www.w3.org/2000/svg">
<path d="M5.99875 15.7529V2.99763C5.99875 2.58324 6.33468 2.24731 6.74906 2.24731H11.2509C11.6653 2.24731 12.0012 2.58324 12.0012 2.99763V15.7529" stroke="#CED2DB" stroke-width="1.5" stroke-linecap="round" stroke-linejoin="round"/>
<path d="M15.7528 15.753V5.93363C15.7528 5.5553 15.4461 5.2486 15.0678 5.2486H12.0013" stroke="#CED2DB" stroke-width="1.5" stroke-linecap="round" stroke-linejoin="round"/>
<path d="M5.99875 5.2486H2.93223C2.55389 5.2486 2.24719 5.5553 2.24719 5.93363V15.753" stroke="#CED2DB" stroke-width="1.5" stroke-linecap="round" stroke-linejoin="round"/>
<path d="M12.0013 7.49955H13.877" stroke="#B6BCC9" stroke-width="1.5" stroke-linecap="round" stroke-linejoin="round"/>
<path d="M12.0013 9.75046H13.877" stroke="#B6BCC9" stroke-width="1.5" stroke-linecap="round" stroke-linejoin="round"/>
<path d="M12.0013 12.0014H13.877" stroke="#B6BCC9" stroke-width="1.5" stroke-linecap="round" stroke-linejoin="round"/>
<path d="M4.12296 7.49955H5.99874" stroke="#B6BCC9" stroke-width="1.5" stroke-linecap="round" stroke-linejoin="round"/>
<path d="M4.12296 9.75046H5.99874" stroke="#B6BCC9" stroke-width="1.5" stroke-linecap="round" stroke-linejoin="round"/>
<path d="M4.12296 12.0014H5.99874" stroke="#B6BCC9" stroke-width="1.5" stroke-linecap="round" stroke-linejoin="round"/>
<path d="M7.87454 9.75046H10.1255" stroke="#B6BCC9" stroke-width="1.5" stroke-linecap="round" stroke-linejoin="round"/>
<path d="M7.87454 12.0014H10.1255" stroke="#B6BCC9" stroke-width="1.5" stroke-linecap="round" stroke-linejoin="round"/>
<path d="M7.87454 7.49955H10.1255" stroke="#B6BCC9" stroke-width="1.5" stroke-linecap="round" stroke-linejoin="round"/>
<path d="M7.87454 5.24857H10.1255" stroke="#B6BCC9" stroke-width="1.5" stroke-linecap="round" stroke-linejoin="round"/>
<path d="M9 14.2523V15.7529" stroke="#B6BCC9" stroke-width="1.5" stroke-linecap="round" stroke-linejoin="round"/>
<path d="M16.5031 15.753H1.49686" stroke="#B6BCC9" stroke-width="1.5" stroke-linecap="round" stroke-linejoin="round"/>
</svg>
