<svg width="542" height="540" viewBox="0 0 542 540" fill="none" xmlns="http://www.w3.org/2000/svg">
<path d="M541.056 253.95C536.256 156.35 477.056 65.1496 389.056 23.5496C293.056 -19.6504 176.256 -2.05035 96.256 65.1496C19.456 129.15 -15.744 233.15 6.656 330.75C27.456 426.75 102.656 505.15 197.056 530.75C310.656 562.75 414.656 508.35 478.656 415.55C421.056 492.35 333.056 543.55 235.456 525.95C137.856 508.35 57.856 434.75 35.456 338.75C11.456 236.35 59.456 129.15 150.656 76.3496C245.056 21.9496 377.856 42.7496 440.256 135.55C456.256 157.95 467.456 185.15 472.256 212.35C477.056 234.75 475.456 258.75 478.656 281.15C481.856 301.95 499.456 329.15 523.456 314.75C544.256 301.95 542.656 274.75 541.056 253.95C542.656 265.15 541.056 247.55 541.056 253.95Z" fill="white"/>
</svg>
