<svg width="244" height="54" viewBox="0 0 244 54" fill="none" xmlns="http://www.w3.org/2000/svg">
<g clip-path="url(#clip0_6_1974)">
<path opacity="0.5" d="M28.699 47.5656L7.14841 12.6651C6.65573 11.8667 6.39315 10.9477 6.38959 10.0095C6.38604 9.07126 6.64167 8.15029 7.12828 7.34814C7.6149 6.54599 8.3136 5.8938 9.14733 5.46351C9.98106 5.03321 10.9174 4.84153 11.8532 4.90962L46.7792 7.45095C47.5832 7.50948 48.3619 7.75803 49.0514 8.17616C49.7406 8.59432 50.3208 9.17011 50.7443 9.85619C51.1677 10.5423 51.4223 11.3191 51.487 12.1227C51.5516 12.9263 51.4246 13.7339 51.1165 14.4788L37.7323 46.8387C37.3725 47.7035 36.7813 48.4525 36.0236 49.003C35.2659 49.5538 34.3712 49.8847 33.4375 49.9599C32.5039 50.035 31.5677 49.8514 30.7317 49.429C29.8956 49.0065 29.1923 48.3618 28.699 47.5656Z" fill="#2BD67B"/>
<path d="M37.0876 41.9805L5.38911 20.115C2.17686 17.8992 3.26881 13.2858 7.2744 12.2009L40.9642 3.05713C41.6778 2.79962 42.4425 2.71603 43.1951 2.8133C43.9474 2.91056 44.6658 3.18588 45.2906 3.61641C45.9152 4.04694 46.4283 4.62025 46.787 5.28876C47.1457 5.95727 47.3399 6.70171 47.3533 7.46028L45.3567 38.4679C45.1199 42.1484 40.2998 44.1962 37.0876 41.9805Z" fill="#0A2156"/>
<path d="M23.113 46.3768L11.854 6.93435C11.5967 6.0321 11.5937 5.07631 11.8451 4.17242C12.0966 3.26853 12.5928 2.45164 13.279 1.81184C13.9653 1.17205 14.8148 0.734202 15.7341 0.54658C16.6534 0.358959 17.6066 0.428862 18.4887 0.74859L51.4108 12.6823C52.1687 12.9571 52.8507 13.4078 53.4006 13.9975C53.9503 14.5872 54.3523 15.299 54.5735 16.0743C54.7945 16.8496 54.8286 17.6664 54.6725 18.4573C54.5164 19.2483 54.1748 19.991 53.6759 20.6242L32.0041 48.1312C31.4229 48.8657 30.6505 49.4259 29.7717 49.7499C28.8929 50.0741 27.9419 50.1496 27.023 49.9683C26.104 49.7869 25.2529 49.3559 24.5631 48.7223C23.8732 48.0886 23.3716 47.277 23.113 46.3768Z" fill="#4070F4"/>
<path d="M134.655 12.9586C134.655 12.3173 134.845 11.6905 135.201 11.1573C135.557 10.6241 136.064 10.2085 136.656 9.96311C137.249 9.71772 137.901 9.65351 138.53 9.7786C139.158 9.90372 139.736 10.2125 140.19 10.6659C140.643 11.1194 140.952 11.6971 141.077 12.3261C141.202 12.955 141.138 13.6069 140.892 14.1994C140.647 14.7918 140.231 15.2982 139.698 15.6545C139.165 16.0107 138.538 16.2009 137.897 16.2009C137.04 16.1922 136.22 15.8477 135.614 15.2416C135.008 14.6354 134.663 13.8158 134.655 12.9586ZM135.195 17.7858H140.6V35.7977H135.195V17.7858Z" fill="#0A2156"/>
<path d="M163.941 26.7921C164.004 27.9827 163.831 29.1739 163.432 30.2973C163.032 31.4205 162.415 32.454 161.615 33.338C160.815 34.2218 159.848 34.9388 158.77 35.4479C157.692 35.9567 156.524 36.2476 155.333 36.3034C154.331 36.3578 153.33 36.1889 152.401 35.8089C151.473 35.4286 150.641 34.8468 149.965 34.1054V43.0036H144.562V17.7862H149.965V19.4789C150.641 18.7376 151.473 18.1561 152.402 17.7763C153.33 17.3965 154.331 17.2278 155.333 17.2825C156.524 17.3382 157.692 17.6287 158.77 18.1374C159.848 18.6463 160.815 19.3631 161.615 20.2469C162.415 21.1307 163.032 22.1639 163.432 23.2873C163.831 24.4105 164.004 25.6016 163.941 26.7921ZM158.538 26.7921C158.517 25.9488 158.247 25.1305 157.763 24.4395C157.279 23.7486 156.602 23.2157 155.817 22.9077C155.032 22.5996 154.173 22.5301 153.348 22.7077C152.524 22.8853 151.77 23.3021 151.181 23.906C150.592 24.51 150.194 25.2743 150.037 26.1032C149.881 26.9321 149.972 27.7888 150.3 28.5661C150.628 29.3434 151.177 30.0067 151.88 30.4731C152.583 30.9396 153.408 31.1882 154.251 31.1882C154.831 31.2143 155.409 31.1175 155.948 30.9044C156.487 30.6912 156.976 30.3662 157.38 29.9512C157.785 29.536 158.098 29.04 158.297 28.4954C158.497 27.951 158.579 27.3704 158.538 26.7921Z" fill="#0A2156"/>
<path d="M180.619 30.3915C180.619 34.5349 177.017 36.3 173.126 36.3C171.554 36.4423 169.976 36.1096 168.595 35.345C167.215 34.5807 166.095 33.4194 165.382 32.0117L170.064 29.3472C170.254 29.998 170.662 30.5636 171.22 30.9495C171.777 31.3354 172.45 31.5182 173.126 31.4675C174.423 31.4675 175.07 31.07 175.07 30.3508C175.07 28.3684 166.208 29.4144 166.208 23.1807C166.208 19.2546 169.521 17.2739 173.276 17.2739C174.685 17.2297 176.079 17.5639 177.313 18.2416C178.55 18.9194 179.58 19.916 180.299 21.1275L175.69 23.6136C175.488 23.1408 175.152 22.7377 174.723 22.455C174.293 22.1721 173.79 22.0221 173.276 22.0234C172.34 22.0234 171.764 22.3767 171.764 23.0323C171.758 25.0996 180.619 23.7302 180.619 30.3915Z" fill="#0A2156"/>
<path d="M200.368 17.7856V35.7976H194.965V34.1013C194.341 34.8486 193.548 35.4373 192.652 35.8195C191.758 36.2015 190.784 36.366 189.813 36.2994C186.174 36.2994 183.077 33.7055 183.077 28.8412V17.7856H188.48V28.0532C188.434 28.4825 188.484 28.9167 188.623 29.3252C188.763 29.7337 188.989 30.107 189.288 30.4191C189.586 30.7311 189.949 30.9742 190.35 31.1317C190.753 31.2893 191.184 31.3571 191.615 31.3308C193.596 31.3308 194.972 30.1788 194.972 27.6203V17.7856H200.368Z" fill="#0A2156"/>
<path d="M231.339 24.7365V35.7973H225.935V25.2065C225.935 23.406 225.07 22.2522 223.341 22.2522C221.539 22.2522 220.532 23.5138 220.532 25.6394V35.7973H215.127V25.2065C215.127 23.406 214.263 22.2522 212.533 22.2522C210.733 22.2522 209.724 23.5138 209.724 25.6394V35.7973H204.321V17.7854H209.733V19.4357C210.293 18.7009 211.028 18.1181 211.871 17.7405C212.713 17.3631 213.639 17.203 214.56 17.2748C215.484 17.2296 216.406 17.4247 217.233 17.8413C218.06 18.2577 218.765 18.8813 219.279 19.6513C219.878 18.8457 220.672 18.2051 221.585 17.7895C222.499 17.3738 223.504 17.1968 224.504 17.2748C228.639 17.2819 231.339 20.2344 231.339 24.7365Z" fill="#0A2156"/>
<path d="M235.917 17.6746C238.132 17.6746 239.928 15.8789 239.928 13.6637C239.928 11.4486 238.132 9.65283 235.917 9.65283C233.701 9.65283 231.906 11.4486 231.906 13.6637C231.906 15.8789 233.701 17.6746 235.917 17.6746Z" fill="#0A2156"/>
<path d="M60.8826 9.50098H66.2876V35.7981H60.8826V9.50098ZM69.3479 26.7921C69.342 24.9036 69.8965 23.0559 70.9413 21.483C71.986 19.91 73.4741 18.6823 75.217 17.9556C76.9601 17.2288 78.8793 17.0356 80.7323 17.4003C82.585 17.7651 84.288 18.6714 85.6254 20.0047C86.9628 21.3378 87.8745 23.0377 88.245 24.8895C88.6155 26.7412 88.4284 28.6611 87.7072 30.4063C86.9859 32.1515 85.763 33.6435 84.1933 34.6932C82.6236 35.7429 80.7777 36.3034 78.8892 36.3034C77.635 36.3166 76.3908 36.0801 75.229 35.6072C74.0675 35.1344 73.0116 34.4347 72.1233 33.5493C71.2349 32.6637 70.532 31.6101 70.0555 30.45C69.579 29.2898 69.3385 28.0462 69.3479 26.7921ZM83.0379 26.7921C83.0167 25.9774 82.7559 25.1872 82.2878 24.5202C81.82 23.8532 81.1657 23.3388 80.407 23.0416C79.6481 22.7446 78.8187 22.6777 78.0222 22.8496C77.2256 23.0213 76.4975 23.4244 75.9287 24.0078C75.36 24.5914 74.976 25.3296 74.8246 26.1302C74.6733 26.931 74.7613 27.7584 75.078 28.5094C75.3944 29.2601 75.9254 29.901 76.6042 30.3517C77.2831 30.8025 78.0798 31.0429 78.8945 31.0433C79.4525 31.0592 80.0078 30.9592 80.5252 30.7498C81.0427 30.5406 81.5111 30.2263 81.9011 29.8268C82.291 29.4274 82.5941 28.9516 82.7909 28.4293C82.9877 27.9068 83.0743 27.3494 83.045 26.7921H83.0379ZM109.982 17.7808V34.8934C109.982 40.9451 105.262 43.5018 100.472 43.5018C98.7861 43.629 97.0974 43.2896 95.5913 42.5206C94.0854 41.7518 92.8201 40.583 91.9343 39.1428L96.5442 36.4765C96.9163 37.2282 97.5091 37.8484 98.2433 38.2542C98.9774 38.6599 99.8178 38.8318 100.652 38.747C101.185 38.8197 101.727 38.7719 102.239 38.6071C102.75 38.4422 103.219 38.1648 103.609 37.7948C103.999 37.425 104.301 36.9723 104.492 36.47C104.684 35.9679 104.761 35.4289 104.716 34.8934V33.236C104.083 34.0099 103.278 34.6248 102.364 35.0314C101.451 35.438 100.455 35.6249 99.4561 35.5772C97.0787 35.5032 94.8232 34.5068 93.1676 32.7989C91.512 31.091 90.5862 28.8058 90.5862 26.4272C90.5862 24.0484 91.512 21.7633 93.1676 20.0554C94.8232 18.3475 97.0787 17.3511 99.4561 17.2772C100.455 17.2294 101.451 17.4163 102.364 17.8229C103.278 18.2294 104.083 18.8443 104.716 19.6184V17.7808H109.982ZM104.723 26.4263C104.759 25.5563 104.533 24.6956 104.076 23.9548C103.619 23.2139 102.95 22.6268 102.156 22.269C101.362 21.9112 100.48 21.799 99.6216 21.9469C98.7636 22.0947 97.9694 22.4958 97.3411 23.0987C96.7128 23.7016 96.2792 24.4785 96.0961 25.3296C95.9129 26.1809 95.9885 27.0674 96.3133 27.8754C96.6378 28.6832 97.1969 29.3755 97.9181 29.8632C98.6394 30.3508 99.4902 30.6116 100.361 30.6122C100.928 30.6519 101.498 30.5726 102.033 30.3791C102.569 30.1856 103.057 29.8822 103.468 29.4884C103.879 29.0947 104.203 28.6193 104.419 28.0929C104.635 27.5664 104.739 27.0004 104.723 26.4316V26.4263ZM113.042 26.7797C113.036 24.8912 113.59 23.0436 114.635 21.4707C115.68 19.8976 117.168 18.6699 118.911 17.9432C120.654 17.2164 122.573 17.0232 124.426 17.388C126.279 17.7527 127.982 18.659 129.319 19.9923C130.657 21.3254 131.568 23.0254 131.939 24.8771C132.31 26.7288 132.122 28.6488 131.401 30.3939C130.68 32.1391 129.457 33.6311 127.887 34.6808C126.318 35.7306 124.472 36.291 122.583 36.291C121.33 36.3043 120.087 36.068 118.926 35.5959C117.765 35.124 116.71 34.4253 115.822 33.5412C114.934 32.657 114.23 31.605 113.753 30.4461C113.276 29.2873 113.034 28.0452 113.042 26.7921V26.7797ZM126.732 26.7797C126.711 25.9646 126.45 25.1738 125.982 24.5061C125.514 23.8385 124.86 23.3238 124.101 23.0263C123.341 22.7287 122.511 22.6617 121.714 22.8337C120.917 23.0054 120.189 23.4086 119.62 23.9924C119.051 24.5764 118.666 25.3151 118.515 26.1162C118.364 26.9174 118.452 27.7455 118.769 28.4966C119.086 29.2479 119.617 29.889 120.296 30.3399C120.976 30.7906 121.773 31.0309 122.589 31.0309C123.145 31.0456 123.698 30.9454 124.214 30.7364C124.73 30.5273 125.197 30.2139 125.586 29.816C125.975 29.4181 126.277 28.944 126.474 28.4237C126.672 27.9033 126.759 27.3478 126.732 26.7921V26.7797Z" fill="#0A2156"/>
</g>
<defs>
<clipPath id="clip0_6_1974">
<rect width="243.834" height="53.0074" fill="white"/>
</clipPath>
</defs>
</svg>
